<svg width="20" height="20" viewBox="0 0 20 20" fill="none" xmlns="http://www.w3.org/2000/svg">
<path d="M19.1562 17.5H17.5V10.5938C17.5 9.84375 16.8438 9.1875 16.0938 9.1875H13.0938C12.3438 9.1875 11.6875 9.84375 11.6875 10.5938V17.5H10V7.15625C10 6.40625 9.34375 5.8125 8.59375 5.8125H5.59375C4.84375 5.8125 4.1875 6.40625 4.1875 7.15625V17.5H1.6875V1.65625C1.6875 1.15625 1.34375 0.8125 0.84375 0.8125C0.34375 0.8125 0 1.15625 0 1.65625V18.1562C0 18.6562 0.5 19.1562 1 19.1562H4.15625H10H11.6562H17.5H19.1562C19.6562 19.1562 20 18.8125 20 18.3125C20 17.8438 19.6562 17.5 19.1562 17.5ZM5.84375 17.5V7.5H8.34375V17.5H5.84375ZM13.3438 17.5V10.8438H15.8438V17.5H13.3438Z" fill="white"/>
</svg>
