<svg width="20" height="20" viewBox="0 0 20 20" fill="none" xmlns="http://www.w3.org/2000/svg">
<path d="M4.14972 12.0937H6.64581C7.14503 12.0937 7.48825 11.75 7.48825 11.25C7.48825 10.75 7.14503 10.4062 6.64581 10.4062H4.14972C3.6505 10.4062 3.30728 10.75 3.30728 11.25C3.30728 11.75 3.6505 12.0937 4.14972 12.0937Z" fill="white"/>
<path d="M13.3229 12.0937H15.819C16.3182 12.0937 16.6614 11.75 16.6614 11.25C16.6614 10.75 16.3182 10.4062 15.819 10.4062H13.3229C12.8237 10.4062 12.4805 10.75 12.4805 11.25C12.4805 11.75 12.8237 12.0937 13.3229 12.0937Z" fill="white"/>
<path d="M19.1264 6.25H18.5335L17.0671 2.34375C16.8175 1.65625 16.2246 1.25 15.4758 1.25H4.74259C3.99376 1.25 3.40094 1.65625 3.15133 2.34375L1.59126 6.25H0.842434C0.343214 6.25 0 6.59375 0 7.09375C0 7.59375 0.343214 7.9375 0.842434 7.9375H0.936037C0.842434 8.03125 0.842434 8.09375 0.842434 8.1875V14.3438C0.842434 14.9375 1.34165 15.4375 1.93448 15.4375H2.4961V16.25C2.4961 17.6562 3.58814 18.75 4.9922 18.75C6.39626 18.75 7.4883 17.6562 7.4883 16.25V15.4062H12.4805V16.25C12.4805 17.6562 13.5725 18.75 14.9766 18.75C16.3807 18.75 17.4727 17.6562 17.4727 16.25V15.4062H18.0655C18.4087 15.4062 18.6583 15.25 18.908 15.0625C19.064 14.9062 19.1576 14.5625 19.1576 14.3125V8.15625C19.1576 8.0625 19.1576 8.0625 19.1576 8V7.90625C19.6568 7.90625 20 7.5625 20 7.0625C20 6.5625 19.6256 6.25 19.1264 6.25ZM4.74259 2.90625H15.4758L17.1295 7.0625H3.08892L4.74259 2.90625ZM5.83463 16.25C5.83463 16.75 5.49142 17.0938 4.9922 17.0938C4.49298 17.0938 4.14977 16.75 4.14977 16.25V15.4062H5.83463V16.25ZM15.819 16.25C15.819 16.75 15.4758 17.0938 14.9766 17.0938C14.4774 17.0938 14.1342 16.75 14.1342 16.25V15.4062H15.819V16.25ZM17.4727 13.75H12.4805H7.4883H2.4961V8.75H17.4727V13.75Z" fill="white"/>
</svg>
