<svg width="20" height="20" viewBox="0 0 20 20" fill="none" xmlns="http://www.w3.org/2000/svg">
<path d="M15.4687 0H4.46872C3.81247 0 3.31247 0.5 3.31247 1.15625V14.5625C3.31247 15.0625 3.46872 15.4688 3.90622 15.8125L8.06247 19.5625C8.40622 19.8125 8.71872 19.9688 9.15622 19.9688H15.5625C16.1562 19.9688 16.7187 19.4688 16.7187 18.8125V1.15625C16.625 0.5 16.125 0 15.4687 0ZM5.37497 14.9063H8.28122V17.5L5.37497 14.9063ZM14.9687 18.25H9.96872V14.3438C9.96872 13.75 9.46872 13.25 8.96872 13.25H4.96872V1.65625H14.9687V18.25Z" fill="white"/>
</svg>
