<svg width="20" height="20" viewBox="0 0 20 20" fill="none" xmlns="http://www.w3.org/2000/svg">
<path d="M12 13.1563L10.8438 14V5C10.8438 4.5 10.5 4.15625 10 4.15625C9.50004 4.15625 9.15629 4.5 9.15629 5V14L8.00004 13.1563C7.59379 12.9063 7.09379 13 6.84379 13.3125C6.59379 13.7188 6.68754 14.2188 7.00004 14.4688L9.00004 15.875C9.25004 16.0313 9.65629 16.2188 10 16.2188C10.3438 16.2188 10.6563 16.125 11 15.875L13 14.4688C13.3438 14.2188 13.5 13.7188 13.1563 13.3125C12.8438 12.9063 12.3438 12.9063 12 13.1563Z" fill="white"/>
<path d="M10 0C4.5 0 0 4.5 0 10C0 15.5 4.5 20 10 20C15.5 20 20 15.5 20 10C20 4.5 15.5 0 10 0ZM10 18.3438C5.40625 18.3438 1.65625 14.5938 1.65625 10C1.65625 5.40625 5.40625 1.65625 10 1.65625C14.5938 1.65625 18.3438 5.40625 18.3438 10C18.3438 14.5938 14.5938 18.3438 10 18.3438Z" fill="white"/>
</svg>
