<svg width="20" height="20" viewBox="0 0 20 20" fill="none" xmlns="http://www.w3.org/2000/svg">
<path d="M16.375 3.34375H4.96879C4.62504 3.34375 4.12504 3.25 4.12504 2.59375C4.12504 2.09375 4.53129 1.6875 5.03129 1.6875H16.625C17.125 1.6875 17.4688 1.34375 17.4688 0.84375C17.4688 0.34375 17.125 0 16.625 0H5.03129C3.68754 0 2.53129 1.09375 2.43754 2.40625V2.5V17.9062C2.43754 19.0625 3.43754 20 4.68754 20H16.4375C17.0313 20 17.5313 19.5 17.5313 18.9062V4.40625C17.4688 3.84375 16.9688 3.34375 16.375 3.34375ZM15.7813 18.3438H4.71879C4.37504 18.3438 4.12504 18.1875 4.12504 17.9375V4.84375C4.37504 4.9375 4.62504 5 4.96879 5H15.8125V18.3438H15.7813Z" fill="white"/>
<path d="M7.46875 17.5H12.4688C12.9688 17.5 13.3125 17.1563 13.3125 16.6563C13.3125 16.1563 12.9688 15.8125 12.4688 15.8125H7.46875C6.96875 15.8125 6.625 16.1563 6.625 16.6563C6.625 17.1563 6.96875 17.5 7.46875 17.5Z" fill="white"/>
<path d="M7.46875 10H12.4688C12.9688 10 13.3125 9.65625 13.3125 9.15625V6.65625C13.3125 6.15625 12.9688 5.8125 12.4688 5.8125H7.46875C6.96875 5.8125 6.625 6.15625 6.625 6.65625V9.15625C6.625 9.65625 6.96875 10 7.46875 10ZM8.28125 7.5H11.625V8.34375H8.28125V7.5Z" fill="white"/>
</svg>
