<svg width="20" height="20" viewBox="0 0 20 20" fill="none" xmlns="http://www.w3.org/2000/svg">
<path d="M19.6251 3.78125C18.5626 2.6875 17.4689 1.53125 16.4064 0.46875C16.1564 0.21875 15.8126 0.0625 15.5001 0.0625C15.1876 0.0625 14.9064 0.125 14.6564 0.375L2.0626 12.8437C2.03135 12.875 2.0001 12.9062 2.0001 12.9688L0.125103 18.7812L0.0938528 18.875C0.000102811 19.125 0.0626028 19.4062 0.218853 19.625C0.468853 19.9062 0.875103 20 1.2501 19.875L7.03135 18C7.0626 18 7.1251 17.9688 7.15635 17.9375L19.6251 5.46875C19.8751 5.21875 19.9689 4.96875 19.9689 4.625C19.9689 4.28125 19.8126 3.9375 19.6251 3.78125ZM6.1876 16.4688L2.1251 17.8125L3.4376 13.75L12.4064 4.96875L15.0626 7.625L6.1876 16.4688ZM16.2189 6.4375L13.5626 3.78125L15.3751 1.96875C16.2814 2.875 17.1876 3.78125 18.0314 4.71875L16.2189 6.4375Z" fill="url(#paint0_linear)"/>
<defs>
<linearGradient id="paint0_linear" x1="0.0498047" y1="0.0625" x2="20.0397" y2="0.120687" gradientUnits="userSpaceOnUse">
<stop stop-color="#F4AB4A"/>
<stop offset="1" stop-color="#FA9613"/>
</linearGradient>
</defs>
</svg>
