<svg width="20" height="20" viewBox="0 0 20 20" fill="none" xmlns="http://www.w3.org/2000/svg">
<path d="M6.66145 11.6562C9.00428 11.6562 10.8161 9.81247 10.8161 7.49997C10.8161 5.18747 8.97304 3.34372 6.66145 3.34372C4.34985 3.34372 2.50682 5.15622 2.50682 7.49997C2.50682 9.84372 4.34985 11.6562 6.66145 11.6562ZM6.66145 4.99997C8.06715 4.99997 9.16047 6.09372 9.16047 7.49997C9.16047 8.90622 8.06715 9.99997 6.66145 9.99997C5.25575 9.99997 4.16242 8.90622 4.16242 7.49997C4.16242 6.09372 5.25575 4.99997 6.66145 4.99997Z" fill="white"/>
<path d="M6.66146 12.5C4.25615 12.5 2.00703 13.5 0.257712 15.25C-0.0859039 15.5937 -0.0859039 16.0937 0.257712 16.4062C0.601327 16.7187 1.10113 16.75 1.41351 16.4062C2.81921 15 4.75595 14.1562 6.66146 14.1562C8.56696 14.1562 10.41 15 11.9094 16.4062C12.0656 16.5625 12.3155 16.6562 12.5029 16.6562C12.7528 16.6562 12.909 16.5625 13.0964 16.4062C13.4401 16.0625 13.4401 15.5625 13.0964 15.25C11.3159 13.5 9.00429 12.5 6.66146 12.5Z" fill="white"/>
<path d="M15.002 11.6562C16.4077 11.6562 17.501 10.5625 17.501 9.1562C17.501 7.74995 16.4077 6.6562 15.002 6.6562C13.5963 6.6562 12.5029 7.74995 12.5029 9.1562C12.5029 10.5625 13.565 11.6562 15.002 11.6562ZM15.002 8.3437C15.5018 8.3437 15.8454 8.68745 15.8454 9.18745C15.8454 9.68745 15.5018 10.0312 15.002 10.0312C14.5022 10.0312 14.1585 9.68745 14.1585 9.18745C14.1585 8.6562 14.5022 8.3437 15.002 8.3437Z" fill="white"/>
<path d="M19.7501 14.4062C18.0008 12.75 15.5955 12.1562 13.159 12.75C12.7529 12.8437 12.4092 13.3437 12.5654 13.75C12.6591 14.1562 13.159 14.5 13.565 14.3437C15.4081 13.8437 17.3136 14.3437 18.6568 15.5937C18.813 15.75 19.0004 15.8437 19.2503 15.8437C19.5002 15.8437 19.6564 15.75 19.8438 15.5937C20.0625 15.25 20.0625 14.6562 19.7501 14.4062Z" fill="white"/>
</svg>
