<svg width="20" height="20" viewBox="0 0 20 20" fill="none" xmlns="http://www.w3.org/2000/svg">
<path d="M9.72727 12.6901C9.64935 12.6901 9.58442 12.662 9.53247 12.6056C9.48052 12.5493 9.45455 12.4789 9.45455 12.3944V11.831C9.47186 11.3333 9.58874 10.9061 9.80519 10.5493C10.0216 10.1925 10.3377 9.78404 10.7532 9.32394C11.0909 8.94836 11.3377 8.6385 11.4935 8.39437C11.6494 8.15024 11.7273 7.88263 11.7273 7.59155C11.7273 7.15962 11.5584 6.8169 11.2208 6.56338C10.8918 6.30986 10.5065 6.1831 10.0649 6.1831C9.03463 6.1831 8.42857 6.74648 8.24675 7.87324C8.20346 8.07981 8.09091 8.1831 7.90909 8.1831H7.28571C7.19913 8.1831 7.12987 8.15493 7.07792 8.09859C7.02597 8.04225 7 7.96714 7 7.87324C7.01732 7.35681 7.15152 6.88263 7.4026 6.4507C7.66234 6.00939 8.02597 5.65728 8.49351 5.39437C8.96104 5.13146 9.49784 5 10.1039 5C10.7446 5 11.2814 5.12207 11.7143 5.3662C12.1558 5.60094 12.4805 5.9108 12.6883 6.29577C12.8961 6.67136 13 7.07512 13 7.50704C13 7.98592 12.9004 8.39906 12.7013 8.74648C12.5022 9.0939 12.2035 9.49765 11.8052 9.95775C11.4762 10.3333 11.2294 10.6526 11.0649 10.9155C10.9004 11.169 10.8052 11.4554 10.7792 11.7746C10.7619 12.0376 10.7532 12.2347 10.7532 12.3662C10.71 12.5822 10.6017 12.6901 10.4286 12.6901H9.72727ZM9.62338 15C9.5368 15 9.4632 14.9718 9.4026 14.9155C9.35065 14.8498 9.32468 14.77 9.32468 14.6761V13.8169C9.32468 13.723 9.35065 13.6479 9.4026 13.5915C9.4632 13.5258 9.5368 13.493 9.62338 13.493H10.4675C10.5541 13.493 10.6277 13.5258 10.6883 13.5915C10.7489 13.6479 10.7792 13.723 10.7792 13.8169V14.6761C10.7792 14.77 10.7489 14.8498 10.6883 14.9155C10.6277 14.9718 10.5541 15 10.4675 15H9.62338Z" fill="white"/>
<path d="M10 20C4.5 20 0 15.5 0 10C0 4.5 4.5 0 10 0C15.5 0 20 4.5 20 10C20 15.5 15.5 20 10 20ZM10 1.65625C5.40625 1.65625 1.65625 5.40625 1.65625 10C1.65625 14.5938 5.40625 18.3438 10 18.3438C14.5938 18.3438 18.3438 14.5938 18.3438 10C18.3438 5.40625 14.5938 1.65625 10 1.65625Z" fill="white"/>
</svg>
