<svg width="20" height="20" viewBox="0 0 20 20" fill="none" xmlns="http://www.w3.org/2000/svg">
<g opacity="0.3">
<path d="M19.6438 17.6562L14.3347 13.3438C16.5832 10.25 16.2397 5.9375 13.4915 3.1875C11.9924 1.65625 9.99367 0.84375 7.90125 0.84375C5.80882 0.84375 3.84132 1.65625 2.34227 3.15625C0.843216 4.65625 0 6.65625 0 8.75C0 10.8438 0.843216 12.8438 2.34227 14.3438C3.93501 15.9375 5.93374 16.6875 7.93248 16.6875C9.83752 16.6875 11.7738 16.0312 13.2728 14.5938L18.6757 19C18.8318 19.1562 19.0192 19.1562 19.1754 19.1562C19.4252 19.1562 19.675 19.0625 19.8312 18.8125C20.081 18.5 20.081 18 19.6438 17.6562ZM7.90125 15C6.24604 15 4.6533 14.3437 3.49778 13.1562C2.34227 12 1.6552 10.4062 1.6552 8.75C1.6552 7.09375 2.31104 5.5 3.49778 4.34375C4.68453 3.1875 6.24604 2.5 7.90125 2.5C9.55645 2.5 11.1492 3.15625 12.3047 4.34375C13.4602 5.53125 14.1473 7.09375 14.1473 8.75C14.1473 10.4062 13.4915 12 12.3047 13.1562C11.1492 14.3437 9.58768 15 7.90125 15Z" fill="#202020"/>
</g>
</svg>
